<svg viewBox="0 0 512 512" xmlns="http://www.w3.org/2000/svg"><linearGradient gradientUnits="userSpaceOnUse" id="a" x1="0" x2="512" y1="256" y2="256"><stop offset="0" stop-color="#95a5a6"/><stop offset="1" stop-color="#7f8c8d"/></linearGradient><circle cx="256" cy="256" fill="url(#a)" r="256"/><linearGradient gradientUnits="userSpaceOnUse" id="b" x1="42.667" x2="469.333" y1="256.001" y2="256.001"><stop offset="0" stop-color="#7f8c8d"/><stop offset="1" stop-color="#95a5a6"/></linearGradient><path d="M256 469.334c-117.631 0-213.333-95.702-213.333-213.333S138.369 42.667 256 42.667c117.636 0 213.333 95.702 213.333 213.334S373.636 469.334 256 469.334z" fill="url(#b)"/><g><circle cx="264" cy="203.671" opacity=".3" r="56.64"/><path d="M331.383 269.077c-.893-.607-2.69-1.774-2.69-1.774-14.478 20.1-38.082 33.212-64.693 33.212-26.613 0-50.22-13.114-64.697-33.219 0 0-1.51.989-2.26 1.494C165.045 290.343 144 326.908 144 368.387v12.583h240v-12.583c0-41.296-20.86-77.72-52.617-99.31z" opacity=".3"/></g><g fill="#FFF"><circle cx="256" cy="195.671" r="56.64"/><path d="M323.383 261.077c-.893-.607-2.69-1.774-2.69-1.774-14.478 20.1-38.082 33.212-64.693 33.212-26.613 0-50.22-13.114-64.697-33.219 0 0-1.51.989-2.26 1.494C157.045 282.343 136 318.908 136 360.387v12.583h240v-12.583c0-41.296-20.86-77.72-52.617-99.31z"/></g></svg>