<svg height="91" width="91" xmlns="http://www.w3.org/2000/svg"><path d="M75.773 30.874H3.275a2.506 2.506 0 01-2.504-2.506V12.18a2.504 2.504 0 012.504-2.506h72.498a2.505 2.505 0 012.506 2.506v16.188a2.506 2.506 0 01-2.506 2.506zm-69.992-5.01H73.27v-11.18H5.781v11.18z" fill="#45596B"/><path d="M17.865 21.657a2.504 2.504 0 01-2.504-2.504V5.428a2.506 2.506 0 115.01 0v13.725a2.504 2.504 0 01-2.506 2.504zM39.527 21.657a2.504 2.504 0 01-2.506-2.504V5.428a2.506 2.506 0 015.01 0v13.725a2.504 2.504 0 01-2.504 2.504zM61.184 21.657a2.504 2.504 0 01-2.506-2.504V5.428a2.506 2.506 0 015.01 0v13.725a2.505 2.505 0 01-2.504 2.504z" fill="#45596B"/><g fill="#647F94"><path d="M15.145 41.19h7.598v7.596h-7.598zM15.145 62.857h7.598v7.596h-7.598z"/><path d="M64.541 48.05a2.504 2.504 0 002.684-.395l10.197-8.902a2.5 2.5 0 00.857-1.885v-8.497a2.506 2.506 0 00-2.506-2.506H3.275a2.506 2.506 0 00-2.504 2.506v55.427a2.503 2.503 0 002.504 2.504h65.209c5.402 0 9.795-4.395 9.795-9.799V52.126a2.503 2.503 0 00-4.215-1.828l-10.197 9.538a2.495 2.495 0 00-.793 1.828v7.957h-26.51V42.028h26.51v5.41c0 .983.572.204 1.467.612zM26.918 72.121a2.506 2.506 0 01-2.506 2.506H13.475a2.504 2.504 0 01-2.504-2.506V61.188a2.506 2.506 0 012.504-2.506h10.938a2.507 2.507 0 012.506 2.506v10.933zm0-21.665a2.506 2.506 0 01-2.506 2.504H13.475a2.504 2.504 0 01-2.504-2.504V39.521a2.504 2.504 0 012.504-2.506h10.938a2.506 2.506 0 012.506 2.506v10.935z"/></g><path d="M49.818 63.693a2.502 2.502 0 01-2.078-1.103l-7.234-10.733a2.503 2.503 0 01.678-3.477 2.502 2.502 0 013.477.674l5.648 8.382L86.512 25.84a2.507 2.507 0 013.295 3.776l-38.342 33.46a2.502 2.502 0 01-1.647.617z" fill="#6EC4A7"/></svg>